HIERARCHY
ROOT Hips
{
	OFFSET 0.000000 88.474243 0.000000
	CHANNELS 6 Xposition Yposition Zposition Zrotation Yrotation Xrotation 
	JOINT Hips_Spine
	{
		OFFSET 0.000000 0.000000 0.000000
		CHANNELS 3 Zrotation Yrotation Xrotation
		JOINT Spine
		{
			OFFSET 0.005100 8.711998 -0.691000
			CHANNELS 3 Zrotation Yrotation Xrotation
			JOINT Spine1
			{
				OFFSET -0.009200 8.660301 -1.275000
				CHANNELS 3 Zrotation Yrotation Xrotation
				JOINT Spine2
				{
					OFFSET 0.006300 9.852501 -1.857000
					CHANNELS 3 Zrotation Yrotation Xrotation
					JOINT Spine2_Neck
					{
						OFFSET 0.000000 0.000000 0.000000
						CHANNELS 3 Zrotation Yrotation Xrotation
						JOINT Neck
						{
							OFFSET 0.016300 11.420799 -0.263300
							CHANNELS 3 Zrotation Yrotation Xrotation
							End Site #name: Head
							{
								OFFSET -0.019200 9.262405 2.362500
							}
						}
					}
					JOINT Spine2_LeftShoulder
					{
						OFFSET 0.000000 0.000000 0.000000
						CHANNELS 3 Zrotation Yrotation Xrotation
						JOINT LeftShoulder
						{
							OFFSET 5.616900 6.732201 -0.345700
							CHANNELS 3 Zrotation Yrotation Xrotation
							JOINT LeftArm
							{
								OFFSET 10.664888 -0.183372 -2.440700
								CHANNELS 3 Zrotation Yrotation Xrotation
								JOINT LeftForeArm
								{
									OFFSET 27.459126 0.000000 0.000000
									CHANNELS 3 Zrotation Yrotation Xrotation
									End Site #name: LeftHand
									{
										OFFSET 21.306858 0.000000 0.000000
									}
								}
							}
						}
					}
					JOINT Spine2_RightShoulder
					{
						OFFSET 0.000000 0.000000 0.000000
						CHANNELS 3 Zrotation Yrotation Xrotation
						JOINT RightShoulder
						{
							OFFSET -5.580300 6.737503 -0.344400
							CHANNELS 3 Zrotation Yrotation Xrotation
							JOINT RightArm
							{
								OFFSET -10.679335 -0.188484 -2.383900
								CHANNELS 3 Zrotation Yrotation Xrotation
								JOINT RightForeArm
								{
									OFFSET -27.503529 0.000000 0.000000
									CHANNELS 3 Zrotation Yrotation Xrotation
									End Site #name: RightHand
									{
										OFFSET -21.306808 0.000000 0.000000
									}
								}
							}
						}
					}
				}
			}
		}
	}
	JOINT Hips_LeftUpLeg
	{
		OFFSET 0.000000 0.000000 0.000000
		CHANNELS 3 Zrotation Yrotation Xrotation
		JOINT LeftUpLeg
		{
			OFFSET 6.857700 -6.739601 0.312100
			CHANNELS 3 Zrotation Yrotation Xrotation
			JOINT LeftLeg
			{
				OFFSET -0.367590 -34.731552 -4.572400
				CHANNELS 3 Zrotation Yrotation Xrotation
				End Site #name: LeftFoot
				{
					OFFSET 0.367590 -34.656704 -6.067400
				}
			}
		}
	}
	JOINT Hips_RightUpLeg
	{
		OFFSET 0.000000 0.000000 0.000000
		CHANNELS 3 Zrotation Yrotation Xrotation
		JOINT RightUpLeg
		{
			OFFSET -6.876100 -6.733299 0.301000
			CHANNELS 3 Zrotation Yrotation Xrotation
			JOINT RightLeg
			{
				OFFSET 0.347353 -34.795158 -4.515900
				CHANNELS 3 Zrotation Yrotation Xrotation
				End Site #name: RightFoot
				{
					OFFSET -0.347353 -34.589367 -6.070300
				}
			}
		}
	}
}
MOTION
Frames: 14
Frame Time: 0.041667
7.885424 42.935276 -12.334121 -19.489726 -19.125566 73.128712 0.000000 0.000000 0.000000 3.878859 7.371070 21.088146 0.868828 1.801970 4.689124 0.000000 0.000000 0.000000 0.886297 1.840555 4.671547 -0.926130 1.485621 -2.372032 0.886297 1.840555 4.671547 -6.785121 -13.505052 4.590426 -28.468341 -33.907686 -26.207539 -0.000019 -47.832064 0.000012 0.886297 1.840555 4.671547 17.581224 25.956548 7.187785 -20.957519 43.593184 -48.299155 0.000027 31.129786 0.000004 0.000000 0.000000 0.000000 -2.284429 0.535311 -31.569020 3.056009 2.999840 29.457289 0.000000 0.000000 0.000000 -1.545954 -34.930496 -75.120070 -1.095982 -9.074287 77.014017 
8.213961 44.105366 -12.909126 -19.597310 -19.587434 73.168544 0.000000 0.000000 0.000000 3.932985 7.322110 22.176989 0.884004 1.812271 4.929315 0.000000 0.000000 0.000000 0.902151 1.852001 4.911562 -0.658267 1.272001 -2.975166 0.902151 1.852001 4.911562 -7.041239 -14.301681 4.898873 -25.260468 -34.967735 -29.018353 0.000008 -45.896867 -0.000004 0.902151 1.852001 4.911562 16.410638 28.130573 7.390641 -23.815115 42.335811 -51.878151 0.000012 28.635630 0.000000 0.000000 0.000000 0.000000 -2.445343 0.229650 -32.469111 2.760330 2.503680 29.093649 0.000000 0.000000 0.000000 0.786365 -36.015313 -79.423294 -2.037431 -9.875570 79.153459 
8.498734 45.202481 -13.476966 -19.578930 -20.031438 73.017296 0.000000 0.000000 0.000000 3.977609 7.296027 23.278655 0.887102 1.824946 5.179634 0.000000 0.000000 0.000000 0.906180 1.866012 5.161740 -0.197990 0.779176 -3.736988 0.906180 1.866012 5.161740 -7.251056 -15.039332 5.181063 -21.800041 -36.128071 -31.687061 -0.000018 -43.584527 0.000017 0.906180 1.866012 5.161740 15.237977 30.228547 7.532425 -26.478610 40.715848 -54.779432 -0.000026 26.174634 -0.000005 0.000000 0.000000 0.000000 -2.584419 0.072166 -33.124087 2.200608 1.749614 28.731003 0.000000 0.000000 0.000000 3.503960 -36.829625 -83.588377 -2.696082 -10.328989 81.027336 
8.728150 46.189999 -14.072502 -19.336617 -20.377162 72.859312 0.000000 0.000000 0.000000 4.085831 7.272938 24.221505 0.898422 1.833420 5.385822 0.000000 0.000000 0.000000 0.918219 1.874848 5.368005 0.396632 0.082814 -4.649752 0.918219 1.874848 5.368005 -7.395260 -15.821816 5.454795 -18.381373 -37.188661 -34.165139 -0.000009 -41.155769 0.000007 0.918219 1.874848 5.368005 13.826007 31.917314 7.463783 -28.520405 38.997982 -56.804085 0.000012 24.118075 -0.000001 0.000000 0.000000 0.000000 -2.738462 -0.087982 -33.950542 1.447538 0.578130 28.642570 0.000000 0.000000 0.000000 6.600191 -37.269400 -87.895694 -2.934857 -10.306160 82.624594 
8.853842 47.015389 -14.714706 -18.980911 -20.661398 72.574403 0.000000 0.000000 0.000000 4.169521 7.197718 25.114444 0.893751 1.823135 5.590220 0.000000 0.000000 0.000000 0.913994 1.864864 5.572735 0.918606 -0.717023 -5.604726 0.913994 1.864864 5.572735 -7.599298 -16.612707 5.761282 -14.709223 -37.855016 -36.392335 -0.000016 -38.802519 -0.000006 0.913994 1.864864 5.572735 12.405491 33.553078 7.340413 -29.874904 37.005486 -58.083589 -0.000010 22.778500 -0.000008 0.000000 0.000000 0.000000 -2.856603 -0.334797 -34.775167 0.701421 -0.681490 29.061592 0.000000 0.000000 0.000000 9.402318 -37.413954 -91.600029 -2.709860 -10.209969 83.909829 
8.876828 47.659611 -15.394409 -18.754704 -20.869420 72.275628 0.000000 0.000000 0.000000 4.291680 7.230706 25.899125 0.893493 1.835135 5.760956 0.000000 0.000000 0.000000 0.914037 1.876626 5.743804 1.319921 -1.563989 -6.520435 0.914037 1.876626 5.743804 -7.911246 -17.314657 6.097660 -11.209834 -38.246070 -38.294635 0.000005 -36.679550 -0.000009 0.914037 1.876626 5.743804 10.961879 35.236699 7.178256 -30.043349 34.561666 -58.497247 0.000011 22.791790 -0.000000 0.000000 0.000000 0.000000 -2.830889 -0.633448 -35.704520 0.082378 -1.860206 30.134342 0.000000 0.000000 0.000000 11.808248 -37.168017 -94.452925 -2.320097 -10.118291 84.876690 
8.838480 48.134034 -16.114639 -18.708359 -20.987457 72.043311 0.000000 0.000000 0.000000 4.434354 7.319314 26.546697 0.889373 1.843504 5.909837 0.000000 0.000000 0.000000 0.910286 1.885668 5.892649 1.707177 -2.454316 -7.363832 0.910286 1.885668 5.892649 -8.277902 -17.815250 6.410055 -7.999396 -38.450477 -40.037465 0.000002 -34.750118 -0.000007 0.910286 1.885668 5.892649 9.701895 37.053084 7.066504 -29.659022 31.786303 -58.105993 0.000000 23.682324 0.000009 0.000000 0.000000 0.000000 -2.661063 -0.911617 -36.906342 -0.421637 -2.845572 31.867988 0.000000 0.000000 0.000000 13.757459 -36.606276 -96.443849 -2.035556 -10.037814 85.548539 
8.743815 48.449814 -16.890724 -18.717122 -21.059538 71.762648 0.000000 0.000000 0.000000 4.556377 7.387130 27.154891 0.879635 1.852172 6.039175 0.000000 0.000000 0.000000 0.900838 1.895235 6.021679 2.063320 -3.337037 -8.120893 0.900838 1.895235 6.021679 -8.373520 -18.081965 6.532957 -5.258853 -38.836251 -41.662153 0.000001 -32.466105 0.000005 0.900838 1.895235 6.021679 8.521103 38.883668 6.948304 -28.868588 28.752180 -56.950807 0.000022 25.416824 -0.000000 0.000000 0.000000 0.000000 -2.450437 -1.123168 -38.221656 -0.904371 -3.600936 34.131233 0.000000 0.000000 0.000000 15.051813 -35.738429 -97.823243 -1.874392 -9.889567 86.619241 
8.580033 48.632393 -17.759658 -18.582486 -21.180242 71.345255 0.000000 0.000000 0.000000 4.620344 7.372858 27.735719 0.856771 1.832299 6.167427 0.000000 0.000000 0.000000 0.877817 1.875889 6.150033 2.252538 -4.137307 -8.750825 0.877817 1.875889 6.150033 -8.421450 -18.441790 6.661986 -2.507818 -38.931820 -43.137062 0.000002 -30.010046 -0.000009 0.877817 1.875889 6.150033 6.720908 40.465900 6.502491 -27.543836 25.945576 -55.688575 -0.000002 27.422278 -0.000002 0.000000 0.000000 0.000000 -2.290309 -1.360892 -39.534004 -1.331197 -4.128043 36.629034 0.000000 0.000000 0.000000 15.448161 -34.732728 -98.712119 -2.484252 -9.791736 87.922000 
8.332585 48.715268 -18.716018 -18.441759 -21.329181 70.925139 0.000000 0.000000 0.000000 4.631111 7.347675 28.186644 0.821052 1.805174 6.267200 0.000000 0.000000 0.000000 0.841793 1.848734 6.250166 2.285289 -4.795961 -9.275954 0.841793 1.848734 6.250166 -8.676945 -19.110996 6.985623 0.473876 -38.172237 -43.906624 0.000004 -27.779896 0.000007 0.841793 1.848734 6.250166 4.595344 41.951334 5.857169 -25.959904 23.363437 -54.365095 -0.000014 29.362618 0.000005 0.000000 0.000000 0.000000 -2.071449 -1.594377 -40.825109 -1.718244 -4.596695 39.249044 0.000000 0.000000 0.000000 15.042116 -33.382292 -99.016266 -4.008159 -9.713596 89.331405 
8.027800 48.731316 -19.751495 -18.424263 -21.372074 70.542082 0.000000 0.000000 0.000000 4.687229 7.343244 28.560422 0.794985 1.781472 6.346601 0.000000 0.000000 0.000000 0.815555 1.825218 6.329804 2.213197 -5.276709 -9.766222 0.815555 1.825218 6.329804 -8.946212 -19.609734 7.271459 3.006258 -37.122991 -44.047048 0.000003 -26.144730 0.000000 0.815555 1.825218 6.329804 2.614841 43.311500 5.201769 -24.783942 21.311200 -53.499105 0.000042 30.574960 0.000016 0.000000 0.000000 0.000000 -1.701824 -1.653502 -42.072327 -2.175379 -5.069032 41.949101 0.000000 0.000000 0.000000 14.706167 -31.449910 -99.203533 -5.378274 -9.234905 90.658256 
7.673769 48.680668 -20.901451 -18.363611 -21.282013 70.180164 0.000000 0.000000 0.000000 4.762749 7.288044 28.804598 0.779628 1.749057 6.405896 0.000000 0.000000 0.000000 0.799884 1.792813 6.389386 1.999694 -5.505926 -10.215088 0.799884 1.792813 6.389386 -9.078056 -19.688599 7.362590 4.354998 -36.001982 -44.154654 -0.000001 -26.022135 0.000019 0.799884 1.792813 6.389386 0.073614 44.426632 4.227301 -23.144320 19.602284 -53.106227 -0.000017 31.752125 -0.000010 0.000000 0.000000 0.000000 -1.169617 -1.635789 -43.388793 -2.160516 -4.980063 44.782751 0.000000 0.000000 0.000000 14.610381 -29.493804 -99.419452 -6.641977 -8.707946 91.956876 
7.280896 48.592904 -22.165222 -18.143592 -21.113969 69.760600 0.000000 0.000000 0.000000 4.831936 7.139740 28.955047 0.774603 1.703484 6.440579 0.000000 0.000000 0.000000 0.794479 1.746469 6.424468 1.690923 -5.400889 -10.564883 0.794479 1.746469 6.424468 -9.031193 -19.456725 7.267435 5.581099 -35.620061 -44.802856 0.000004 -25.183871 0.000012 0.794479 1.746469 6.424468 -2.686802 45.295182 3.085634 -21.355269 18.192027 -53.061002 -0.000000 32.800325 -0.000013 0.000000 0.000000 0.000000 -0.571805 -1.629955 -44.799058 -1.787965 -4.608801 47.764247 0.000000 0.000000 0.000000 14.754740 -27.756306 -99.716329 -7.695004 -8.223607 93.216702 
6.834223 48.445443 -23.528327 -17.706853 -20.950521 69.243882 0.000000 0.000000 0.000000 4.874155 6.934342 29.081114 0.770544 1.644538 6.473790 0.000000 0.000000 0.000000 0.789813 1.685660 6.458241 1.305456 -4.923492 -10.938055 0.789813 1.685660 6.458241 -8.918270 -19.240079 7.144374 6.836423 -35.348116 -45.612460 0.000009 -24.176247 -0.000006 0.789813 1.685660 6.458241 -5.731958 45.702676 1.752606 -19.457349 17.201535 -53.234403 0.000030 33.793857 0.000004 0.000000 0.000000 0.000000 0.032670 -1.640438 -46.211346 -1.247559 -4.178850 50.770412 0.000000 0.000000 0.000000 15.027227 -26.340398 -100.020311 -7.924631 -7.811352 94.313039 
